<svg width="160" height="40" viewBox="0 0 160 40" fill="none" xmlns="http://www.w3.org/2000/svg">
<g clip-path="url(#clip0_7_326)">
<path fill-rule="evenodd" clip-rule="evenodd" d="M76.7682 13.8902C76.7682 13.5937 76.7798 13.3161 76.803 13.0631C76.8262 12.81 76.89 12.5461 76.9972 12.2686C77.0784 12.0482 77.1972 11.8387 77.3508 11.6401C77.5044 11.4414 77.6899 11.2646 77.9073 11.1095C78.1247 10.9544 78.3682 10.8292 78.6406 10.7367C78.9102 10.6442 79.2116 10.5952 79.5391 10.5952C80.3855 10.5952 80.9913 10.7884 81.3565 11.1748C81.7217 11.5612 81.9043 12.1407 81.9043 12.9134V18.5103H82.9622V12.8971C82.9622 12.5434 82.9419 12.2033 82.9013 11.8795C82.8608 11.553 82.7274 11.2374 82.5043 10.9272C82.1738 10.4755 81.7681 10.1572 81.2869 9.97487C80.8058 9.79257 80.2811 9.70278 79.7159 9.70278C79.0812 9.70278 78.5363 9.8361 78.0841 10.1C77.632 10.3667 77.1943 10.7068 76.7711 11.1258V6.58734H75.7132V18.5103H76.7711V13.8902H76.7682Z" fill="#00ACEC"/>
<path fill-rule="evenodd" clip-rule="evenodd" d="M91.3474 17.5009C91.7184 17.1037 92.0024 16.6302 92.2024 16.0751C92.4024 15.5228 92.501 14.9052 92.501 14.2195C92.501 13.591 92.4169 13.0005 92.2459 12.4482C92.0749 11.8958 91.814 11.4197 91.4604 11.017C91.1068 10.6143 90.6662 10.2932 90.1387 10.0565C89.6083 9.81979 88.9852 9.70007 88.2692 9.70007C87.5533 9.70007 86.9475 9.81979 86.4171 10.0565C85.8867 10.2932 85.4461 10.617 85.0925 11.0252C84.7389 11.4333 84.4752 11.9094 84.2984 12.4563C84.1216 13.0032 84.0346 13.591 84.0346 14.2195C84.0346 14.9705 84.1447 15.6262 84.3708 16.1894C84.594 16.7527 84.8983 17.2234 85.278 17.5961C85.6606 17.9716 86.107 18.2519 86.62 18.4423C87.133 18.6301 87.6809 18.728 88.2692 18.7389C88.904 18.7389 89.4837 18.6301 90.0083 18.4151C90.5329 18.2002 90.9793 17.8927 91.3503 17.4955L91.3474 17.5009ZM89.6895 17.5417C89.2953 17.7458 88.8228 17.8492 88.2692 17.8492C87.762 17.8492 87.3157 17.7621 86.9273 17.5852C86.5389 17.4084 86.2171 17.1608 85.9563 16.8397C85.6983 16.5187 85.5012 16.135 85.365 15.6888C85.2288 15.2426 85.1621 14.7528 85.1621 14.2222C85.1621 13.7597 85.2201 13.308 85.3389 12.8726C85.4548 12.4373 85.6374 12.0509 85.8838 11.7135C86.1302 11.3761 86.4519 11.1068 86.8461 10.9027C87.2403 10.6986 87.7127 10.598 88.2663 10.598C88.8199 10.598 89.3069 10.6905 89.6953 10.8782C90.0837 11.066 90.3996 11.3217 90.6489 11.6482C90.8952 11.9747 91.0778 12.3584 91.1967 12.7992C91.3126 13.24 91.3735 13.7161 91.3735 14.2249C91.3735 14.6875 91.3126 15.1364 91.1967 15.5663C91.0778 15.9962 90.8952 16.3826 90.6489 16.7254C90.4025 17.0683 90.0808 17.3404 89.6866 17.5444L89.6895 17.5417Z" fill="#00ACEC"/>
<path fill-rule="evenodd" clip-rule="evenodd" d="M100.301 16.2438C100.301 15.6915 100.156 15.2616 99.8689 14.9514C99.5819 14.6439 99.2196 14.3963 98.7849 14.214C98.3501 14.0317 97.8777 13.8902 97.3733 13.7923C96.8661 13.6916 96.3965 13.5801 95.9618 13.4522C95.527 13.3243 95.1647 13.161 94.8778 12.9542C94.5908 12.7502 94.4459 12.4536 94.4459 12.0672C94.4459 11.6264 94.6227 11.27 94.9763 10.9979C95.3299 10.7285 95.84 10.5925 96.5096 10.5925C97.1791 10.5925 97.7356 10.7285 98.1762 10.9979C98.6168 11.2673 98.8834 11.7353 98.9791 12.3965H100.054C99.924 11.4251 99.5529 10.734 98.9356 10.3177C98.3182 9.90411 97.5153 9.69733 96.527 9.69733C95.5386 9.69733 94.7125 9.92588 94.156 10.383C93.5966 10.8428 93.3184 11.4305 93.3184 12.1461C93.3184 12.7094 93.4633 13.1447 93.7503 13.4549C94.0372 13.7651 94.3995 14.0018 94.8343 14.1678C95.269 14.3337 95.7386 14.4562 96.2458 14.5405C96.7502 14.6222 97.2226 14.7228 97.6574 14.8371C98.0921 14.9514 98.4544 15.1146 98.7414 15.3187C99.0283 15.5228 99.1733 15.8357 99.1733 16.2547C99.1733 16.4642 99.1269 16.6628 99.0312 16.8506C98.9385 17.0383 98.7994 17.207 98.6168 17.3567C98.4341 17.5063 98.2023 17.6233 97.9211 17.7131C97.64 17.8029 97.3038 17.8464 96.9154 17.8464C96.1154 17.8464 95.5009 17.6941 95.072 17.392C94.643 17.09 94.3444 16.5676 94.1821 15.8275H93.1068C93.13 16.2357 93.2256 16.6166 93.3909 16.9703C93.5561 17.324 93.785 17.6315 94.0778 17.8981C94.3734 18.1621 94.727 18.3688 95.1444 18.5185C95.5618 18.6681 96.04 18.7416 96.582 18.7416C97.1241 18.7416 97.6197 18.6899 98.0718 18.5838C98.524 18.4777 98.9153 18.3226 99.2457 18.1104C99.5732 17.9008 99.8341 17.6396 100.022 17.324C100.211 17.0084 100.307 16.6465 100.307 16.2384L100.301 16.2438Z" fill="#00ACEC"/>
<path fill-rule="evenodd" clip-rule="evenodd" d="M105.944 18.7443C106.637 18.7443 107.24 18.6192 107.753 18.3716C108.263 18.124 108.686 17.792 109.022 17.3784C109.358 16.9648 109.608 16.4805 109.773 15.9282C109.938 15.3758 110.019 14.8017 110.019 14.2059C110.019 13.5773 109.944 12.9869 109.79 12.4345C109.637 11.8822 109.393 11.406 109.057 11.0034C108.721 10.6007 108.295 10.2823 107.779 10.051C107.26 9.81976 106.631 9.70276 105.892 9.70276C105.596 9.70276 105.298 9.74085 104.993 9.81976C104.686 9.89594 104.39 10.0075 104.101 10.1517C103.814 10.2959 103.547 10.4782 103.306 10.6986C103.066 10.919 102.869 11.1693 102.715 11.4441H102.68V9.93676H101.622V21.8924H102.68V17.139C103.022 17.6696 103.489 18.0695 104.083 18.3389C104.677 18.6083 105.298 18.7443 105.944 18.7443ZM103.501 16.7825C103.237 16.456 103.034 16.0751 102.892 15.6398C102.75 15.2044 102.68 14.7419 102.68 14.2576C102.68 13.7379 102.747 13.2563 102.883 12.81C103.019 12.3638 103.214 11.9774 103.475 11.6509C103.733 11.3244 104.057 11.0687 104.446 10.8809C104.834 10.6932 105.274 10.6007 105.767 10.6007C106.214 10.6007 106.625 10.6741 107.002 10.8238C107.379 10.9734 107.706 11.1911 107.99 11.4768C108.274 11.7625 108.495 12.1135 108.651 12.5298C108.811 12.9434 108.889 13.4222 108.889 13.961C108.912 14.5024 108.866 15.0058 108.747 15.4765C108.628 15.9472 108.442 16.3581 108.182 16.7091C107.924 17.0628 107.59 17.3403 107.185 17.5444C106.779 17.7485 106.306 17.8519 105.764 17.8519C105.283 17.8519 104.851 17.7566 104.469 17.5634C104.086 17.3703 103.761 17.1118 103.498 16.7853L103.501 16.7825Z" fill="#00ACEC"/>
<path d="M112.61 9.93402H111.552V18.513H112.61V9.93402Z" fill="#00ACEC"/>
<path d="M112.665 6.58734H111.5V8.06207H112.665V6.58734Z" fill="#00ACEC"/>
<path fill-rule="evenodd" clip-rule="evenodd" d="M117.129 18.66C117.341 18.6055 117.512 18.5675 117.639 18.543V17.7321C117.497 17.7648 117.355 17.792 117.207 17.8138C117.06 17.8355 116.917 17.8464 116.775 17.8464C116.552 17.8464 116.378 17.8246 116.254 17.7811C116.129 17.7376 116.039 17.6641 115.981 17.5662C115.923 17.4682 115.889 17.3403 115.877 17.1852C115.865 17.0301 115.86 16.8478 115.86 16.6383V10.7585H117.57V9.9313H115.86V7.54779H114.802V9.9313H113.515V10.7585H114.802V17.0356C114.802 17.675 114.941 18.1185 115.216 18.3688C115.491 18.6164 115.894 18.7416 116.425 18.7416C116.683 18.7416 116.917 18.7144 117.129 18.66Z" fill="#00ACEC"/>
<path fill-rule="evenodd" clip-rule="evenodd" d="M126.239 18.5784C126.398 18.5348 126.517 18.5022 126.601 18.4804V17.7022C126.155 17.8573 125.856 17.8818 125.708 17.7757C125.561 17.6723 125.488 17.4247 125.488 17.0383V12.3693C125.488 11.8713 125.404 11.4523 125.233 11.1122C125.062 10.7694 124.827 10.4973 124.529 10.2932C124.227 10.0892 123.877 9.9395 123.471 9.84699C123.065 9.75448 122.633 9.70551 122.175 9.70551C121.683 9.70551 121.213 9.7572 120.772 9.86332C120.332 9.96943 119.943 10.1354 119.607 10.3612C119.271 10.5871 118.999 10.8809 118.787 11.2401C118.575 11.5993 118.451 12.0319 118.416 12.5407H119.491C119.538 12.1652 119.636 11.8523 119.784 11.6047C119.932 11.3571 120.12 11.1585 120.349 11.0088C120.578 10.8592 120.845 10.7558 121.152 10.6932C121.456 10.6333 121.793 10.6034 122.158 10.6034C122.981 10.6034 123.567 10.7667 123.914 11.0932C124.262 11.4197 124.436 11.836 124.436 12.3421C124.436 12.4972 124.416 12.6658 124.375 12.8481C124.335 13.0305 124.224 13.1611 124.048 13.2372C123.871 13.3134 123.645 13.376 123.369 13.4195C123.094 13.4631 122.853 13.4957 122.656 13.5175L121.193 13.6998C119.062 13.9664 117.999 14.8262 117.999 16.2819C117.999 16.7009 118.08 17.0628 118.245 17.3676C118.41 17.6723 118.633 17.9281 118.915 18.1376C119.199 18.3471 119.523 18.5022 119.894 18.6001C120.265 18.6981 120.651 18.7498 121.051 18.7498C121.72 18.7498 122.343 18.6273 122.92 18.3852C123.497 18.143 124.007 17.7893 124.453 17.3268C124.453 17.4818 124.465 17.6261 124.488 17.7648C124.511 17.9036 124.558 18.0288 124.622 18.1457C124.685 18.2627 124.772 18.3607 124.877 18.4423C124.984 18.524 125.123 18.5784 125.3 18.6001C125.453 18.6328 125.61 18.6491 125.775 18.6491C125.926 18.6491 126.082 18.6273 126.242 18.5811L126.239 18.5784ZM124.43 15.3487C124.43 15.7786 124.335 16.1513 124.149 16.467C123.961 16.7826 123.711 17.0411 123.398 17.2451C123.088 17.4492 122.732 17.6016 122.332 17.6995C121.932 17.7975 121.52 17.8492 121.097 17.8492C120.851 17.8492 120.607 17.8192 120.364 17.7594C120.123 17.6995 119.912 17.6043 119.729 17.4764C119.546 17.3485 119.399 17.1907 119.288 16.9948C119.175 16.8016 119.12 16.5731 119.12 16.3064C119.12 15.7214 119.346 15.2861 119.801 14.9977C120.254 14.712 120.885 14.5406 121.697 14.4834C122.155 14.4508 122.613 14.4072 123.074 14.3501C123.532 14.2957 123.987 14.1787 124.433 14.0018V15.3432L124.43 15.3487Z" fill="#00ACEC"/>
<path d="M128.592 6.58734H127.534V18.5103H128.592V6.58734Z" fill="#00ACEC"/>
<path fill-rule="evenodd" clip-rule="evenodd" d="M89.0054 26.9098C88.6779 26.5316 88.3127 26.2676 87.9127 26.118C87.5099 25.9683 87.1041 25.8922 86.6896 25.8922C86.0693 25.8922 85.507 26.0146 85.0027 26.2568C84.5274 26.4989 84.1274 26.8798 83.8056 27.3968C83.623 26.9669 83.3506 26.6132 82.997 26.3384C82.5535 26.0418 81.9738 25.8949 81.2579 25.8949C80.4985 25.8949 79.884 26.0663 79.4058 26.4118C79.1362 26.605 78.8493 26.9315 78.545 27.3914V26.1071H76.1595V34.9038H78.6493V29.6007C78.6493 29.1219 78.716 28.76 78.8464 28.5178C79.087 28.0906 79.5594 27.8784 80.2579 27.8784C80.8608 27.8784 81.2666 28.0906 81.4724 28.5178C81.5883 28.7545 81.6434 29.1355 81.6434 29.6579V34.9065H84.1158V29.6579C84.1158 29.2633 84.1824 28.9287 84.3129 28.6484C84.5708 28.1206 85.0404 27.8566 85.7157 27.8566C86.3012 27.8566 86.7041 28.0607 86.9215 28.4716C87.0374 28.6865 87.0925 28.9613 87.0925 29.296V34.9065H89.6083L89.6257 29.3504C89.6257 28.779 89.5967 28.3464 89.5388 28.0498C89.446 27.6036 89.2692 27.2254 89.0054 26.9179V26.9098Z" fill="#00ACEC"/>
<path fill-rule="evenodd" clip-rule="evenodd" d="M98.8283 34.2915C98.7471 34.1827 98.6979 33.9786 98.6805 33.6766C98.6689 33.2767 98.6631 32.9393 98.6631 32.659V28.6157C98.6631 27.5546 98.2631 26.8308 97.4602 26.4499C96.6574 26.069 95.7415 25.8758 94.7096 25.8758C93.1242 25.8758 92.0054 26.2649 91.3532 27.0403C90.9445 27.5355 90.7127 28.1695 90.6605 28.9395H93.0285C93.0865 28.5994 93.2024 28.33 93.3792 28.1314C93.6227 27.8621 94.0401 27.726 94.6285 27.726C95.1531 27.726 95.5502 27.794 95.8197 27.9328C96.0893 28.0716 96.2255 28.3192 96.2255 28.681C96.2255 28.9776 96.0487 29.1953 95.6951 29.3368C95.498 29.4184 95.1705 29.4837 94.7154 29.5381L93.8749 29.6361C92.9213 29.7504 92.1967 29.9381 91.7068 30.202C90.8112 30.6864 90.3619 31.4727 90.3619 32.5556C90.3619 33.3909 90.6402 34.0358 91.1967 34.4929C91.7532 34.9473 92.4604 35.1758 93.3155 35.1758C93.985 35.1758 94.585 35.0344 95.1183 34.7487C95.5646 34.5065 95.9559 34.2126 96.2979 33.8671C96.3153 34.0657 96.3385 34.2453 96.3675 34.4004C96.3965 34.5555 96.4487 34.7242 96.5211 34.901H99.1906V34.5609C99.0312 34.4902 98.9095 34.4031 98.8283 34.2943V34.2915ZM96.2197 31.47C96.2023 32.24 95.9675 32.7706 95.5154 33.0617C95.0632 33.3528 94.5705 33.497 94.0343 33.497C93.6951 33.497 93.4082 33.41 93.1734 33.2331C92.9358 33.059 92.8198 32.7733 92.8198 32.3788C92.8198 31.938 93.014 31.6115 93.3995 31.3992C93.6285 31.2741 94.0053 31.1707 94.527 31.0836L95.0864 30.9857C95.3676 30.9367 95.5849 30.885 95.7472 30.8278C95.9067 30.7707 96.0661 30.6972 96.2226 30.6047V31.4618L96.2197 31.47Z" fill="#00ACEC"/>
<path d="M102.451 26.0853H99.9616V34.8983H102.451V26.0853Z" fill="#00ACEC"/>
<path d="M102.451 22.9073H99.9616V25.035H102.451V22.9073Z" fill="#00ACEC"/>
<path fill-rule="evenodd" clip-rule="evenodd" d="M109.025 29.5953C107.558 29.2933 106.703 29.0811 106.463 28.9559C106.219 28.8362 106.1 28.6457 106.1 28.3818C106.1 28.1723 106.214 27.9873 106.442 27.8322C106.671 27.6771 107.051 27.5982 107.587 27.5982C108.237 27.5982 108.697 27.7533 108.97 28.0662C109.115 28.2376 109.202 28.4743 109.237 28.7709H111.692C111.581 27.6934 111.158 26.9343 110.419 26.4935C109.68 26.0527 108.724 25.835 107.55 25.835C106.312 25.835 105.353 26.1262 104.672 26.7112C103.99 27.2961 103.648 27.9954 103.648 28.809C103.648 29.5001 103.866 30.0279 104.303 30.3925C104.741 30.7653 105.492 31.0755 106.558 31.3231C108.04 31.6523 108.897 31.8836 109.126 32.0196C109.355 32.1557 109.471 32.3516 109.471 32.6101C109.471 32.8686 109.329 33.0808 109.042 33.2168C108.755 33.3529 108.373 33.4182 107.889 33.4182C107.063 33.4182 106.498 33.2658 106.193 32.9583C106.019 32.7869 105.906 32.4958 105.857 32.0849H103.367C103.367 32.991 103.721 33.7365 104.425 34.3215C105.13 34.9065 106.222 35.1977 107.7 35.1977C109.179 35.1977 110.222 34.9201 110.915 34.3678C111.608 33.8154 111.955 33.1026 111.955 32.2291C111.955 31.5652 111.715 31.0129 111.231 30.5721C110.744 30.1368 110.01 29.8103 109.031 29.5926L109.025 29.5953Z" fill="#00ACEC"/>
<path fill-rule="evenodd" clip-rule="evenodd" d="M123.14 27.3887C122.804 26.986 122.378 26.6676 121.862 26.4364C121.343 26.2051 120.714 26.0881 119.975 26.0881C119.68 26.0881 119.381 26.1262 119.077 26.2051C118.77 26.2813 118.474 26.3928 118.184 26.537C117.897 26.6812 117.63 26.8635 117.39 27.0839C117.149 27.3043 116.952 27.5546 116.799 27.8295H116.764V26.3221H115.706V38.2777H116.764V33.5243C117.106 34.0549 117.573 34.4549 118.167 34.7242C118.761 34.9936 119.381 35.1296 120.028 35.1296C120.72 35.1296 121.323 35.0045 121.836 34.7569C122.346 34.5093 122.769 34.1773 123.106 33.7637C123.442 33.3502 123.691 32.8658 123.856 32.3135C124.022 31.7612 124.103 31.187 124.103 30.5912C124.103 29.9626 124.027 29.3722 123.874 28.8199C123.72 28.2675 123.477 27.7914 123.14 27.3887ZM122.833 31.8591C122.714 32.3298 122.529 32.7407 122.268 33.0917C122.01 33.4454 121.677 33.7229 121.271 33.927C120.865 34.1311 120.393 34.2345 119.851 34.2345C119.37 34.2345 118.938 34.1392 118.555 33.946C118.173 33.7529 117.848 33.4944 117.584 33.1679C117.32 32.8414 117.117 32.4604 116.975 32.0251C116.833 31.5897 116.764 31.1272 116.764 30.6429C116.764 30.1232 116.831 29.6416 116.967 29.1953C117.103 28.7491 117.297 28.3628 117.558 28.0362C117.816 27.7097 118.141 27.454 118.529 27.2662C118.917 27.0785 119.358 26.986 119.851 26.986C120.297 26.986 120.709 27.0594 121.085 27.2091C121.462 27.3587 121.79 27.5764 122.074 27.8621C122.358 28.1478 122.578 28.4988 122.735 28.9151C122.894 29.3287 122.972 29.8075 122.972 30.3463C122.996 30.8877 122.949 31.3911 122.83 31.8618L122.833 31.8591Z" fill="#00ACEC"/>
<path fill-rule="evenodd" clip-rule="evenodd" d="M132.271 27.3152C131.94 26.8635 131.534 26.5452 131.053 26.3629C130.572 26.1806 130.047 26.0908 129.482 26.0908C128.847 26.0908 128.303 26.2241 127.85 26.488C127.398 26.7547 126.961 27.0948 126.537 27.5138V22.9753H125.479V34.8983H126.537V30.2782C126.537 29.9817 126.549 29.7041 126.572 29.4511C126.595 29.198 126.659 28.9341 126.766 28.6566C126.848 28.4362 126.966 28.2267 127.12 28.0281C127.274 27.8294 127.459 27.6526 127.677 27.4975C127.894 27.3424 128.137 27.2172 128.41 27.1247C128.682 27.0322 128.981 26.9832 129.308 26.9832C130.155 26.9832 130.76 27.1764 131.126 27.5628C131.491 27.9492 131.673 28.5287 131.673 29.3014V34.8983H132.731V29.2851C132.731 28.9314 132.711 28.5913 132.671 28.2675C132.63 27.941 132.497 27.6254 132.273 27.3152H132.271Z" fill="#00ACEC"/>
<path fill-rule="evenodd" clip-rule="evenodd" d="M141.23 27.405C140.876 27.0023 140.435 26.6812 139.908 26.4445C139.38 26.2078 138.754 26.0881 138.038 26.0881C137.323 26.0881 136.717 26.2078 136.186 26.4445C135.656 26.6812 135.215 27.005 134.862 27.4132C134.508 27.8213 134.244 28.2974 134.068 28.8443C133.891 29.3913 133.804 29.979 133.804 30.6075C133.804 31.3585 133.914 32.0142 134.14 32.5774C134.363 33.1407 134.668 33.6114 135.047 33.9841C135.43 34.3596 135.876 34.6399 136.389 34.8303C136.902 35.0181 137.45 35.116 138.038 35.1269C138.673 35.1269 139.253 35.0181 139.778 34.8031C140.302 34.5882 140.749 34.2807 141.12 33.8835C141.491 33.4862 141.775 33.0128 141.975 32.4577C142.175 31.9054 142.273 31.2877 142.273 30.6021C142.273 29.9735 142.189 29.3831 142.018 28.8307C141.847 28.2784 141.586 27.8022 141.233 27.3995L141.23 27.405ZM140.966 31.9516C140.847 32.3815 140.664 32.7679 140.418 33.1107C140.172 33.4536 139.85 33.7256 139.456 33.9297C139.062 34.1338 138.589 34.2372 138.036 34.2372C137.528 34.2372 137.082 34.1501 136.694 33.9733C136.305 33.7964 135.983 33.5488 135.723 33.2277C135.465 32.9067 135.268 32.523 135.131 32.0768C134.995 31.6306 134.928 31.1408 134.928 30.6102C134.928 30.1477 134.986 29.696 135.105 29.2606C135.221 28.8253 135.404 28.4389 135.65 28.1015C135.897 27.7642 136.218 27.4948 136.612 27.2907C137.007 27.0866 137.479 26.986 138.033 26.986C138.586 26.986 139.073 27.0785 139.462 27.2662C139.85 27.454 140.166 27.7097 140.415 28.0362C140.662 28.3627 140.844 28.7464 140.963 29.1872C141.079 29.628 141.14 30.1041 141.14 30.6129C141.14 31.0755 141.079 31.5244 140.963 31.9543L140.966 31.9516Z" fill="#00ACEC"/>
<path fill-rule="evenodd" clip-rule="evenodd" d="M150.122 27.3152C149.792 26.8635 149.386 26.5452 148.905 26.3628C148.424 26.1805 147.899 26.0908 147.334 26.0908C146.699 26.0908 146.154 26.2241 145.702 26.488C145.25 26.7547 144.812 27.0948 144.389 27.5138V26.322H143.331V34.901H144.389V30.281C144.389 29.9844 144.401 29.7068 144.424 29.4538C144.447 29.2008 144.511 28.9368 144.618 28.6593C144.699 28.4389 144.818 28.2294 144.972 28.0308C145.125 27.8321 145.311 27.6553 145.528 27.5002C145.745 27.3451 145.989 27.2199 146.261 27.1274C146.534 27.0349 146.832 26.9859 147.16 26.9859C148.006 26.9859 148.612 27.1791 148.977 27.5655C149.342 27.9519 149.525 28.5314 149.525 29.3041V34.901H150.583V29.2878C150.583 28.9341 150.563 28.594 150.522 28.2702C150.482 27.9437 150.348 27.6281 150.125 27.3179L150.122 27.3152Z" fill="#00ACEC"/>
<path fill-rule="evenodd" clip-rule="evenodd" d="M157.76 33.7229C157.267 34.0657 156.673 34.2371 155.977 34.2371C155.47 34.2371 155.023 34.1474 154.635 33.9623C154.247 33.78 153.928 33.5379 153.673 33.2331C153.421 32.9311 153.229 32.572 153.099 32.1584C152.968 31.7448 152.905 31.304 152.905 30.8415H159.994C160.006 29.296 159.652 28.1178 158.936 27.307C158.217 26.4962 157.232 26.0908 155.971 26.0908C155.313 26.0908 154.725 26.2105 154.206 26.4472C153.687 26.6839 153.25 27.0104 152.893 27.424C152.534 27.8376 152.258 28.3219 152.064 28.8715C151.87 29.4239 151.774 30.0143 151.774 30.6428C151.774 31.2714 151.855 31.8591 152.021 32.406C152.186 32.9529 152.438 33.4263 152.78 33.8317C153.122 34.2344 153.557 34.5528 154.084 34.784C154.615 35.0153 155.244 35.1323 155.971 35.1323C156.548 35.1323 157.052 35.0616 157.49 34.9174C157.925 34.7732 158.302 34.5718 158.617 34.3133C158.936 34.0548 159.2 33.7501 159.412 33.4018C159.623 33.0536 159.794 32.6753 159.925 32.2672H158.742C158.577 32.8957 158.249 33.3828 157.754 33.7256L157.76 33.7229ZM153.209 28.8552C153.36 28.4906 153.565 28.1695 153.818 27.8947C154.07 27.6199 154.377 27.3968 154.734 27.2335C155.093 27.0676 155.507 26.9859 155.977 26.9859C156.447 26.9859 156.864 27.0648 157.229 27.2254C157.594 27.3859 157.896 27.6009 158.139 27.8702C158.38 28.1423 158.562 28.4607 158.684 28.8307C158.809 29.2008 158.87 29.5953 158.87 30.0143H152.908C152.954 29.6062 153.055 29.2198 153.209 28.8552Z" fill="#00ACEC"/>
<path fill-rule="evenodd" clip-rule="evenodd" d="M47.7345 19.9443H44.2651L44.5317 18.3689C44.6158 17.8192 44.8042 16.9758 44.8042 16.4778C44.8042 16.1758 44.6158 15.8874 44.4535 15.7323C44.294 15.5827 43.9752 15.4031 43.6622 15.4031H41.1115C40.6362 15.4031 40.042 15.7758 39.7841 16.1649C39.4739 16.6302 39.4652 17.1853 39.358 17.773L38.9928 19.9415H35.5146C34.8306 19.9415 34.1147 20.5483 33.9379 21.2394L33.735 22.4529C33.6857 22.7277 33.5495 23.4461 33.5495 23.6828C33.5495 24.3793 34.1002 24.8664 34.6915 24.8664H38.1638L37.8972 26.4472C37.845 26.7465 37.7899 27.0485 37.7464 27.3234C37.7001 27.6199 37.6218 27.9165 37.6218 28.224C37.6218 28.926 38.1812 29.4076 38.7638 29.4076H41.3144C41.8014 29.4076 42.3869 29.0348 42.6419 28.6457C42.9521 28.1723 42.9608 27.6363 43.068 27.0377C43.1723 26.4581 43.2593 25.8731 43.3607 25.3044L43.4332 24.8691H46.9084C47.2794 24.8691 47.7287 24.6242 47.9287 24.4501C48.4794 23.9685 48.4823 23.5821 48.5895 22.9781C48.6707 22.5155 48.8736 21.4326 48.8736 21.0163C48.8736 20.4667 48.3113 19.9443 47.7316 19.9443H47.7345Z" fill="#00ACEC"/>
<path fill-rule="evenodd" clip-rule="evenodd" d="M13.8285 22.6407C13.8285 22.2189 13.7357 21.8788 13.3242 21.6258C13.0053 21.4299 12.6024 21.4843 12.0981 21.4843C11.1851 21.4843 10.3127 21.4571 9.37357 21.4571H0.936198C0.510126 21.4571 0 21.9333 0 22.4203C0 22.6869 0.00869533 22.8747 0.16811 23.1141C0.246368 23.2338 0.394189 23.3699 0.518822 23.4434C0.831854 23.6284 6.82874 23.574 7.32147 23.574C8.25188 23.574 9.14749 23.6012 10.1069 23.6012H12.8894C13.3155 23.6012 13.8285 23.125 13.8285 22.638V22.6407Z" fill="#00ACEC"/>
<path fill-rule="evenodd" clip-rule="evenodd" d="M12.3879 25.3697C12.0691 25.1738 11.6662 25.2283 11.1619 25.2283C10.2489 25.2283 9.37646 25.201 8.43736 25.201H5.53602C5.10995 25.201 4.59692 25.6772 4.59692 26.1642C4.59692 26.4309 4.60562 26.6186 4.76503 26.8581C4.84329 26.9778 4.99111 27.1138 5.11575 27.1873C5.42878 27.3723 5.88963 27.3179 6.38237 27.3179C7.31277 27.3179 8.20839 27.3451 9.16487 27.3451H11.9503C12.3764 27.3451 12.8865 26.869 12.8865 26.3819C12.8865 25.9602 12.7937 25.6201 12.385 25.367L12.3879 25.3697Z" fill="#00ACEC"/>
<path fill-rule="evenodd" clip-rule="evenodd" d="M6.81716 19.5388C7.13019 19.7239 7.59105 19.6694 8.08378 19.6694C9.01418 19.6694 9.9098 19.6967 10.8663 19.6967H13.6517C14.0778 19.6967 14.5908 19.2205 14.5908 18.7335C14.5908 18.3117 14.498 17.9716 14.0894 17.7186C13.7705 17.5227 13.3676 17.5771 12.8633 17.5771C11.9503 17.5771 11.0779 17.5499 10.1388 17.5499H7.23744C6.81136 17.5499 6.29834 18.026 6.29834 18.5131C6.29834 18.7797 6.30704 18.9675 6.46645 19.2069C6.54471 19.3239 6.69253 19.4627 6.81716 19.5361V19.5388Z" fill="#00ACEC"/>
<path fill-rule="evenodd" clip-rule="evenodd" d="M19.0921 21.5577C18.7414 21.7264 18.3994 22.1101 18.3994 22.5291C18.3994 23.563 19.5297 23.6828 20.179 23.0733C20.5674 22.7087 20.6978 22.0665 20.2978 21.6829C19.9587 21.3618 19.5008 21.3618 19.0921 21.5577Z" fill="#00ACEC"/>
<path fill-rule="evenodd" clip-rule="evenodd" d="M68.4932 10.4184C68.3859 10.3177 68.2236 10.2034 68.1048 10.1245C67.7135 9.86333 67.0526 9.62933 66.5222 9.62933H57.3747C57.3225 9.49601 57.2675 9.36812 57.2037 9.24296C57.1747 9.18582 57.1544 9.1314 57.1226 9.07154C56.7805 8.40492 56.1603 7.71381 55.4907 7.33017C54.2705 6.62817 52.7111 6.69347 51.6271 7.53151C50.8561 8.12739 50.4677 8.64708 50.0706 9.59396C50.0648 9.60484 50.0619 9.61845 50.0561 9.62933H20.2746C19.7471 9.62933 19.1036 9.8334 18.7413 10.0048C18.3095 10.2089 17.9385 10.4619 17.5849 10.7639C17.4892 10.8483 17.4573 10.9109 17.3646 10.9979C17.1559 11.1966 16.8979 11.5612 16.7675 11.8115C16.3762 12.5489 16.3211 13.1719 16.1849 14.0154C15.6284 17.4111 14.9908 20.8911 14.4632 24.2841L13.5328 29.8212C13.4604 30.2266 13.1531 31.9571 13.1531 32.2428C13.1531 32.9556 13.2488 33.4563 13.6749 34.0358L13.9937 34.3977C14.069 34.4685 14.1067 34.4875 14.185 34.5501C14.6284 34.9147 15.3704 35.1895 15.9965 35.1895H18.3848C18.3761 35.2902 18.3703 35.3908 18.3703 35.4915C18.3703 36.6452 18.5413 37.2928 19.179 38.1988C19.2544 38.3077 19.3297 38.4056 19.4167 38.4981C19.466 38.5498 19.5007 38.5716 19.5442 38.626C19.5993 38.6913 19.608 38.7131 19.6775 38.7756C20.4746 39.4912 21.6427 39.9783 22.7934 39.9783C23.944 39.9783 24.6832 39.8341 25.6078 39.4015C25.9875 39.2219 26.4599 38.9743 26.7874 38.7212L27.4019 38.226L28.1033 37.4533C28.5468 36.8384 28.8975 36.3024 29.1178 35.5432C29.1497 35.4289 29.1786 35.3092 29.2047 35.1922H49.5663C49.5576 35.3011 49.5518 35.4099 49.5518 35.5215C49.5518 36.6751 49.7228 37.3227 50.3605 38.2287C50.4358 38.3349 50.5112 38.4355 50.5982 38.528C50.6474 38.5797 50.6822 38.6015 50.7257 38.6559C50.7808 38.7212 50.7895 38.743 50.859 38.8056C51.6561 39.5212 52.8242 40.0082 53.9748 40.0082C55.1255 40.0082 55.8675 39.864 56.7892 39.4314C57.1718 39.2518 57.6414 39.0042 57.9689 38.7512L58.5834 38.256L59.2848 37.4859C59.7283 36.871 60.079 36.335 60.2992 35.5759C60.334 35.4507 60.3659 35.3255 60.392 35.1949H62.2064C62.7397 35.1949 63.3745 34.9936 63.7397 34.8195C64.1716 34.6154 64.5426 34.3623 64.8962 34.0603C65.1541 33.8399 65.5541 33.3148 65.7135 33.0128C66.1309 32.2237 66.1396 31.685 66.2961 30.8088C66.7164 28.4716 67.0758 26.0663 67.4903 23.7046C67.5801 23.1876 67.67 22.6489 67.754 22.1074L68.5482 17.3785C68.6352 16.886 69.3279 12.9325 69.3279 12.5788C69.3279 11.8033 69.2381 11.4115 68.8004 10.7912L68.4874 10.4266L68.4932 10.4184ZM17.3066 24.4093C16.7907 23.9277 16.64 23.427 16.64 22.6951C16.64 22.287 16.8197 21.8326 16.9733 21.5469C17.1385 21.2367 17.382 20.9374 17.6312 20.7061C17.7066 20.6354 17.7733 20.5946 17.8515 20.5265C18.8312 19.7048 20.5963 19.4627 21.6311 20.4286C22.4485 21.1904 22.4658 22.3577 21.9644 23.2883C21.0775 24.9453 18.6428 25.6527 17.3066 24.4038V24.4093ZM26.8396 34.5555C26.8396 34.6018 26.8338 34.648 26.8309 34.6943C26.8309 34.7161 26.828 34.7406 26.8251 34.7623C26.8164 34.8249 26.8077 34.8875 26.7961 34.9501C26.7961 34.9555 26.7961 34.9609 26.7961 34.9664C26.7845 35.0344 26.7671 35.0997 26.7497 35.1677C26.6889 35.3936 26.6019 35.614 26.4918 35.8207C26.1237 36.4983 25.544 37.0071 24.831 37.3417C24.2716 37.6057 23.9122 37.6628 23.2687 37.6628C22.3209 37.6628 21.4224 37.0778 21.092 36.3513C20.8688 35.8616 20.8659 35.6765 20.8659 35.1596C20.8659 34.7569 21.0688 34.2181 21.2166 33.9488C21.2456 33.8971 21.2746 33.8454 21.3036 33.7991C21.3123 33.7855 21.321 33.7719 21.3297 33.7583C21.3528 33.7229 21.3731 33.6876 21.3963 33.6549C21.405 33.6413 21.4137 33.6304 21.4224 33.6195C21.4543 33.576 21.4833 33.5352 21.5152 33.4944C21.5181 33.4889 21.5238 33.4835 21.5296 33.4781C21.5586 33.4427 21.5847 33.41 21.6137 33.3774C21.6224 33.3665 21.634 33.3556 21.6427 33.3447C21.6688 33.3148 21.6949 33.2876 21.7238 33.2604C21.7325 33.2522 21.7412 33.2441 21.7499 33.2332C21.8659 33.1162 21.9905 33.0046 22.1325 32.8876C23.1934 32.0006 25.0513 31.753 26.1179 32.7625C26.2367 32.8767 26.3063 32.942 26.4048 33.0726C26.5005 33.2005 26.5787 33.3338 26.6396 33.4753C26.6599 33.5189 26.6773 33.5624 26.6947 33.6059C26.7034 33.6304 26.7121 33.6522 26.7208 33.6767C26.7353 33.7202 26.7497 33.7665 26.7613 33.81C26.7671 33.8318 26.7729 33.8535 26.7787 33.8753C26.7932 33.9406 26.8077 34.0059 26.8193 34.0712C26.8193 34.0766 26.8193 34.0794 26.8193 34.0848C26.828 34.1474 26.8367 34.2127 26.8396 34.278C26.8396 34.2998 26.8396 34.3243 26.8425 34.346C26.8425 34.3923 26.8425 34.4385 26.8425 34.4875C26.8425 34.512 26.8425 34.5365 26.8425 34.561L26.8396 34.5555ZM58.0211 34.6426C58.0211 34.6426 58.0211 34.6535 58.0211 34.6589C58.0153 34.7351 58.0066 34.8113 57.995 34.8875C57.995 34.9065 57.9892 34.9229 57.9863 34.9419C57.9718 35.0235 57.9573 35.1024 57.9341 35.1813C57.8733 35.4126 57.7863 35.6357 57.6704 35.8452C57.3023 36.5227 56.7226 37.0316 56.0096 37.3662C55.4502 37.6302 55.0907 37.6873 54.4473 37.6873C53.4995 37.6873 52.601 37.1023 52.2706 36.3758C52.0474 35.8861 52.0445 35.701 52.0445 35.1841C52.0445 34.7814 52.2474 34.2426 52.3952 33.9733C52.4271 33.9161 52.459 33.8617 52.4908 33.81C52.4995 33.7937 52.5111 33.7801 52.5198 33.7665C52.543 33.7311 52.5662 33.6957 52.5865 33.6631C52.5981 33.6467 52.6097 33.6304 52.6242 33.6114C52.6445 33.5814 52.6647 33.5542 52.6879 33.527C52.7024 33.5107 52.714 33.4944 52.7285 33.4781C52.8966 33.2713 53.085 33.0998 53.314 32.9094C54.3748 32.0224 56.2327 31.7748 57.2994 32.7842C57.3254 32.8087 57.3457 32.8305 57.3689 32.8495C57.3776 32.8577 57.3863 32.8658 57.3921 32.874C57.4066 32.8903 57.424 32.9039 57.4385 32.9203C57.4443 32.9284 57.453 32.9366 57.4588 32.942C57.4733 32.9584 57.4878 32.9747 57.5051 32.9937C57.5109 32.9992 57.5167 33.0073 57.5225 33.0128C57.5428 33.0373 57.5631 33.0645 57.5863 33.0944C57.6356 33.1624 57.682 33.2332 57.7225 33.3039C57.7312 33.3202 57.7428 33.3393 57.7515 33.3556C57.7892 33.4264 57.8269 33.4998 57.8559 33.576V33.5814C57.8848 33.6549 57.9109 33.7311 57.9312 33.8046C57.937 33.8236 57.9428 33.8427 57.9457 33.8617C57.966 33.9379 57.9834 34.0168 57.995 34.0957C57.995 34.0984 57.995 34.1039 57.995 34.1093C58.0066 34.1855 58.0124 34.2617 58.0182 34.3406C58.0182 34.3596 58.0182 34.3787 58.0182 34.3977C58.0182 34.4793 58.0182 34.5582 58.0182 34.6399L58.0211 34.6426ZM60.0094 16.9703L59.0877 22.4611C58.7573 24.3004 58.4935 26.1234 58.166 27.9519L57.7979 30.1694C56.7226 29.7559 55.4559 29.7069 54.3545 30.0116C53.9227 30.1313 53.6299 30.2347 53.2531 30.4089C52.5865 30.7218 52.001 31.1163 51.4619 31.5897L50.7634 32.3652C50.5199 32.6972 50.2909 33.0509 50.0967 33.4264H29.2743C29.1641 32.6318 28.8511 31.8727 28.2772 31.2741L27.4135 30.5422C26.2164 29.7749 24.5585 29.598 23.1673 29.9844C22.831 30.0769 22.5789 30.1585 22.3093 30.2728C22.5151 29.0267 22.7151 27.775 22.9354 26.5479L23.3991 23.7916C23.4658 23.3318 23.5441 22.8965 23.6252 22.4366C23.9556 20.5973 24.2194 18.7743 24.5469 16.9458L25.3498 12.1434C25.3817 11.9394 25.4541 11.6673 25.4541 11.4714H60.9137L60.4558 14.2331C60.305 15.1609 60.163 16.0534 60.0007 16.9676L60.0094 16.9703ZM62.2354 24.3712C62.1861 24.646 62.163 24.7576 61.9832 24.9317C61.676 25.2337 61.1746 25.3099 60.8702 25.0269C60.7746 24.9371 60.7137 24.8065 60.7137 24.6514C60.7137 24.3848 60.7717 24.1671 60.8152 23.9195L61.392 20.4721C61.4412 20.1973 61.4644 20.0858 61.6441 19.9116C61.8963 19.664 62.0644 19.645 62.3861 19.645C62.5571 19.645 62.9136 19.8463 62.9136 20.1674C62.9136 20.532 62.3224 23.876 62.2354 24.3739V24.3712Z" fill="#00ACEC"/>
<path fill-rule="evenodd" clip-rule="evenodd" d="M59.0268 7.68114L61.105 5.94521C61.3224 5.78195 61.934 5.21873 62.1542 5.06091C62.618 4.72896 62.6702 4.2392 62.2789 3.86916C61.9485 3.55625 61.4702 3.53721 61.0905 3.83923C61.0268 3.89092 61.0094 3.89092 60.9456 3.95078C60.8992 3.9916 60.876 4.02153 60.8268 4.05962C60.763 4.11132 60.7456 4.11132 60.6818 4.17118L58.8674 5.68672C58.65 5.84997 58.0385 6.4132 57.8182 6.57101C57.653 6.69073 57.4385 6.87848 57.4385 7.14785C57.4385 7.43354 57.4878 7.56414 57.679 7.74644C58.1022 8.15458 58.6152 8.05391 59.0297 7.67842L59.0268 7.68114Z" fill="#00ACEC"/>
<path fill-rule="evenodd" clip-rule="evenodd" d="M54.5198 5.2405C54.5546 5.09085 54.5662 1.22989 54.5662 0.688428C54.5662 -0.0543788 53.1169 -0.334632 52.9112 0.565987C52.859 0.794543 52.8967 1.5564 52.8967 1.84481C52.8967 2.2992 52.8677 2.65564 52.8677 3.11003V5.11806C52.8677 5.86086 54.3169 6.14112 54.5227 5.2405H54.5198Z" fill="#00ACEC"/>
<path fill-rule="evenodd" clip-rule="evenodd" d="M45.4998 5.47991C45.5983 5.57242 45.6708 5.61324 45.7635 5.70031L46.2882 6.14109C46.6505 6.42407 47.2273 6.96281 47.5954 7.25394C47.6533 7.3002 47.6678 7.3002 47.7258 7.3519C47.778 7.39543 47.8069 7.4308 47.8562 7.47706C48.0997 7.68929 48.4678 8.03212 48.7576 8.03212C49.0475 8.03212 49.2359 8.0158 49.4706 7.79268C49.6996 7.57773 49.7257 7.43352 49.7257 7.15327C49.7257 6.80772 49.3373 6.61453 49.0881 6.37509L46.3635 4.08953C46.0012 3.80656 45.9838 3.6297 45.4157 3.6297C45.0621 3.6297 44.6245 4.00518 44.6245 4.37251C44.6245 4.94662 45.0302 5.03913 45.4969 5.47991H45.4998Z" fill="#00ACEC"/>
</g>
<defs>
<clipPath id="clip0_7_326">
<rect width="160" height="40" fill="white"/>
</clipPath>
</defs>
</svg>
